HIERARCHY
ROOT Hips
{
	OFFSET 0.000000 0.000000 0.000000
	CHANNELS 6 Xposition Yposition Zposition Zrotation Yrotation Xrotation 
	JOINT Spine
	{
		OFFSET 0.000000 10.181600 0.131500
		CHANNELS 3 Zrotation Yrotation Xrotation
		JOINT Spine1
		{
			OFFSET 0.000000 10.083500 -1.000800
			CHANNELS 3 Zrotation Yrotation Xrotation
			JOINT Spine2
			{
				OFFSET 0.000000 9.100000 -1.373400
				CHANNELS 3 Zrotation Yrotation Xrotation
				JOINT Neck
				{
					OFFSET 0.000000 16.671700 -2.516200
					CHANNELS 3 Zrotation Yrotation Xrotation
					JOINT Head
					{
						OFFSET -0.000000 9.617900 1.685000
						CHANNELS 3 Zrotation Yrotation Xrotation
						JOINT HeadTop_End
						{
							OFFSET -0.000000 17.815200 2.585000
							CHANNELS 3 Zrotation Yrotation Xrotation
							End Site
							{
								OFFSET 0.000000 0.000000 0.000000
							}
						}
						JOINT LeftEye
						{
							OFFSET 3.067600 6.409500 9.283600
							CHANNELS 3 Zrotation Yrotation Xrotation
							End Site
							{
								OFFSET 0.000000 0.000000 0.000000
							}
						}
						JOINT RightEye
						{
							OFFSET -3.067600 6.409500 9.283500
							CHANNELS 3 Zrotation Yrotation Xrotation
							End Site
							{
								OFFSET 0.000000 0.000000 0.000000
							}
						}
					}
				}
				JOINT LeftShoulder
				{
					OFFSET 4.570400 10.946000 -2.628000
					CHANNELS 3 Zrotation Yrotation Xrotation
					JOINT LeftArm
					{
						OFFSET 10.592400 -0.524600 -2.232100
						CHANNELS 3 Zrotation Yrotation Xrotation
						JOINT LeftForeArm
						{
							OFFSET 27.841500 -0.000100 0.000000
							CHANNELS 3 Zrotation Yrotation Xrotation
							JOINT LeftHand
							{
								OFFSET 28.328800 -0.000000 0.000000
								CHANNELS 3 Zrotation Yrotation Xrotation
								JOINT LeftHandThumb1
								{
									OFFSET 2.466100 -1.575000 2.682400
									CHANNELS 3 Zrotation Yrotation Xrotation
									JOINT LeftHandThumb2
									{
										OFFSET 3.229800 -1.864700 1.864700
										CHANNELS 3 Zrotation Yrotation Xrotation
										JOINT LeftHandThumb3
										{
											OFFSET 2.652600 -1.531500 1.531500
											CHANNELS 3 Zrotation Yrotation Xrotation
											JOINT LeftHandThumb4
											{
												OFFSET 1.954600 -1.128500 1.128500
												CHANNELS 3 Zrotation Yrotation Xrotation
												End Site
												{
													OFFSET 0.000000 0.000000 0.000000
												}
											}
										}
									}
								}
								JOINT LeftHandIndex1
								{
									OFFSET 9.109300 -0.517100 2.260100
									CHANNELS 3 Zrotation Yrotation Xrotation
									JOINT LeftHandIndex2
									{
										OFFSET 3.676400 -0.000000 0.000000
										CHANNELS 3 Zrotation Yrotation Xrotation
										JOINT LeftHandIndex3
										{
											OFFSET 2.883100 0.000000 -0.000000
											CHANNELS 3 Zrotation Yrotation Xrotation
											JOINT LeftHandIndex4
											{
												OFFSET 2.392700 0.000000 0.000000
												CHANNELS 3 Zrotation Yrotation Xrotation
												End Site
												{
													OFFSET 0.000000 0.000000 0.000000
												}
											}
										}
									}
								}
								JOINT LeftHandMiddle1
								{
									OFFSET 9.533400 -0.000000 0.000000
									CHANNELS 3 Zrotation Yrotation Xrotation
									JOINT LeftHandMiddle2
									{
										OFFSET 3.698200 0.000000 0.000000
										CHANNELS 3 Zrotation Yrotation Xrotation
										JOINT LeftHandMiddle3
										{
											OFFSET 2.950900 -0.000000 0.000000
											CHANNELS 3 Zrotation Yrotation Xrotation
											JOINT LeftHandMiddle4
											{
												OFFSET 2.833900 -0.000000 -0.000000
												CHANNELS 3 Zrotation Yrotation Xrotation
												End Site
												{
													OFFSET 0.000000 0.000000 0.000000
												}
											}
										}
									}
								}
								JOINT LeftHandRing1
								{
									OFFSET 9.104500 -0.043900 -1.865100
									CHANNELS 3 Zrotation Yrotation Xrotation
									JOINT LeftHandRing2
									{
										OFFSET 3.154000 -0.000000 0.000000
										CHANNELS 3 Zrotation Yrotation Xrotation
										JOINT LeftHandRing3
										{
											OFFSET 2.937700 -0.000000 -0.000000
											CHANNELS 3 Zrotation Yrotation Xrotation
											JOINT LeftHandRing4
											{
												OFFSET 2.647500 -0.000000 0.000000
												CHANNELS 3 Zrotation Yrotation Xrotation
												End Site
												{
													OFFSET 0.000000 0.000000 0.000000
												}
											}
										}
									}
								}
								JOINT LeftHandPinky1
								{
									OFFSET 8.077800 -0.488700 -3.806100
									CHANNELS 3 Zrotation Yrotation Xrotation
									JOINT LeftHandPinky2
									{
										OFFSET 3.600000 -0.000000 -0.000000
										CHANNELS 3 Zrotation Yrotation Xrotation
										JOINT LeftHandPinky3
										{
											OFFSET 2.114200 0.000000 -0.000000
											CHANNELS 3 Zrotation Yrotation Xrotation
											JOINT LeftHandPinky4
											{
												OFFSET 1.975700 0.000000 -0.000000
												CHANNELS 3 Zrotation Yrotation Xrotation
												End Site
												{
													OFFSET 0.000000 0.000000 0.000000
												}
											}
										}
									}
								}
							}
						}
					}
				}
				JOINT RightShoulder
				{
					OFFSET -4.570000 10.946200 -2.628000
					CHANNELS 3 Zrotation Yrotation Xrotation
					JOINT RightArm
					{
						OFFSET -10.592800 -0.524800 -2.232100
						CHANNELS 3 Zrotation Yrotation Xrotation
						JOINT RightForeArm
						{
							OFFSET -27.841500 -0.000000 0.000000
							CHANNELS 3 Zrotation Yrotation Xrotation
							JOINT RightHand
							{
								OFFSET -28.328800 -0.000000 0.000100
								CHANNELS 3 Zrotation Yrotation Xrotation
								JOINT RightHandPinky1
								{
									OFFSET -8.076700 -0.488500 -3.806000
									CHANNELS 3 Zrotation Yrotation Xrotation
									JOINT RightHandPinky2
									{
										OFFSET -3.600000 0.000000 0.000100
										CHANNELS 3 Zrotation Yrotation Xrotation
										JOINT RightHandPinky3
										{
											OFFSET -2.114200 0.000000 0.000000
											CHANNELS 3 Zrotation Yrotation Xrotation
											JOINT RightHandPinky4
											{
												OFFSET -1.975700 -0.000000 -0.000000
												CHANNELS 3 Zrotation Yrotation Xrotation
												End Site
												{
													OFFSET 0.000000 0.000000 0.000000
												}
											}
										}
									}
								}
								JOINT RightHandRing1
								{
									OFFSET -9.103600 -0.043900 -1.865100
									CHANNELS 3 Zrotation Yrotation Xrotation
									JOINT RightHandRing2
									{
										OFFSET -3.154000 0.000000 0.000000
										CHANNELS 3 Zrotation Yrotation Xrotation
										JOINT RightHandRing3
										{
											OFFSET -2.937700 -0.000000 -0.000000
											CHANNELS 3 Zrotation Yrotation Xrotation
											JOINT RightHandRing4
											{
												OFFSET -2.647500 0.000000 -0.000000
												CHANNELS 3 Zrotation Yrotation Xrotation
												End Site
												{
													OFFSET 0.000000 0.000000 0.000000
												}
											}
										}
									}
								}
								JOINT RightHandMiddle1
								{
									OFFSET -9.532500 -0.000000 0.000000
									CHANNELS 3 Zrotation Yrotation Xrotation
									JOINT RightHandMiddle2
									{
										OFFSET -3.698200 0.000000 -0.000000
										CHANNELS 3 Zrotation Yrotation Xrotation
										JOINT RightHandMiddle3
										{
											OFFSET -2.950900 -0.000000 -0.000000
											CHANNELS 3 Zrotation Yrotation Xrotation
											JOINT RightHandMiddle4
											{
												OFFSET -2.833900 0.000000 0.000100
												CHANNELS 3 Zrotation Yrotation Xrotation
												End Site
												{
													OFFSET 0.000000 0.000000 0.000000
												}
											}
										}
									}
								}
								JOINT RightHandIndex1
								{
									OFFSET -9.108300 -0.516800 2.260100
									CHANNELS 3 Zrotation Yrotation Xrotation
									JOINT RightHandIndex2
									{
										OFFSET -3.676400 0.000000 0.000000
										CHANNELS 3 Zrotation Yrotation Xrotation
										JOINT RightHandIndex3
										{
											OFFSET -2.883100 -0.000000 0.000000
											CHANNELS 3 Zrotation Yrotation Xrotation
											JOINT RightHandIndex4
											{
												OFFSET -2.392700 0.000000 0.000000
												CHANNELS 3 Zrotation Yrotation Xrotation
												End Site
												{
													OFFSET 0.000000 0.000000 0.000000
												}
											}
										}
									}
								}
								JOINT RightHandThumb1
								{
									OFFSET -2.464800 -1.572700 2.682600
									CHANNELS 3 Zrotation Yrotation Xrotation
									JOINT RightHandThumb2
									{
										OFFSET -3.229800 -1.864700 1.864700
										CHANNELS 3 Zrotation Yrotation Xrotation
										JOINT RightHandThumb3
										{
											OFFSET -2.652600 -1.531400 1.531400
											CHANNELS 3 Zrotation Yrotation Xrotation
											JOINT RightHandThumb4
											{
												OFFSET -1.954600 -1.128500 1.128500
												CHANNELS 3 Zrotation Yrotation Xrotation
												End Site
												{
													OFFSET 0.000000 0.000000 0.000000
												}
											}
										}
									}
								}
							}
						}
					}
				}
			}
		}
	}
	JOINT LeftUpLeg
	{
		OFFSET 8.207800 -6.751700 -1.599600
		CHANNELS 3 Zrotation Yrotation Xrotation
		JOINT LeftLeg
		{
			OFFSET -0.000000 -44.370500 0.284600
			CHANNELS 3 Zrotation Yrotation Xrotation
			JOINT LeftFoot
			{
				OFFSET 0.000000 -44.427900 -2.982200
				CHANNELS 3 Zrotation Yrotation Xrotation
				JOINT LeftToeBase
				{
					OFFSET -0.000000 -8.728700 10.710600
					CHANNELS 3 Zrotation Yrotation Xrotation
					JOINT LeftToe_End
					{
						OFFSET -0.000000 -0.000700 9.278100
						CHANNELS 3 Zrotation Yrotation Xrotation
						End Site
						{
							OFFSET 0.000000 0.000000 0.000000
						}
					}
				}
			}
		}
	}
	JOINT RightUpLeg
	{
		OFFSET -8.207800 -6.751700 -1.599600
		CHANNELS 3 Zrotation Yrotation Xrotation
		JOINT RightLeg
		{
			OFFSET 0.000000 -44.370500 0.286200
			CHANNELS 3 Zrotation Yrotation Xrotation
			JOINT RightFoot
			{
				OFFSET 0.000000 -44.427700 -2.983800
				CHANNELS 3 Zrotation Yrotation Xrotation
				JOINT RightToeBase
				{
					OFFSET -0.000000 -8.728700 10.710600
					CHANNELS 3 Zrotation Yrotation Xrotation
					JOINT RightToe_End
					{
						OFFSET -0.000000 -0.000700 9.278100
						CHANNELS 3 Zrotation Yrotation Xrotation
						End Site
						{
							OFFSET 0.000000 0.000000 0.000000
						}
					}
				}
			}
		}
	}
}
MOTION
Frames: 4
Frame Time: 0.033333
6.200259 102.753036 71.699974 3.691442 -1.790413 -2.937646 -3.367405 0.143753 1.316011 -0.339246 -0.274175 2.512387 -0.341048 -0.284003 2.510724 1.154811 0.498380 -2.852482 -1.059688 3.917440 -4.684186 0.000000 0.000000 0.000000 0.000000 0.000000 0.000000 0.000000 0.000000 0.000000 -11.083851 0.520498 0.745704 -65.135048 -3.928123 -6.608060 -0.000183 -22.093739 -0.000004 -16.766537 -11.801546 30.567900 -7.068699 20.884293 -3.169546 4.559329 24.619228 6.695100 3.432483 10.024217 0.775689 0.000000 0.000000 0.000000 -26.320131 3.051259 -0.713580 -21.536388 2.526994 -0.480649 -14.848620 1.764675 -0.229965 0.000000 0.000000 0.000000 -26.304108 3.049548 -0.712732 -21.552402 2.528769 -0.481354 -14.848617 1.764686 -0.229963 0.000000 0.000000 0.000000 -26.320131 3.051259 -0.713580 -21.536388 2.526994 -0.480649 -14.848620 1.764675 -0.229965 0.000000 0.000000 0.000000 -25.859104 7.111687 -0.672714 -22.028078 -1.238272 1.023729 -14.848618 1.764678 -0.229962 0.000000 0.000000 0.000000 11.276885 -4.856201 -0.421094 66.015305 -10.633853 -4.096566 0.000026 22.198042 -0.000001 -1.046968 -0.134064 33.832382 -1.555920 0.187265 -0.002561 9.613127 -1.159791 -0.097400 4.806054 -0.582733 -0.024451 0.000000 0.000000 0.000000 -1.555916 0.188859 -0.002564 9.613128 -1.161364 -0.097664 4.806054 -0.582733 -0.024451 0.000000 0.000000 0.000000 -1.555916 0.188859 -0.002564 9.613128 -1.161364 -0.097664 4.806057 -0.584753 -0.024451 0.000000 0.000000 0.000000 -1.555916 0.188859 -0.002564 9.613128 -1.161364 -0.097664 4.806054 -0.582733 -0.024451 0.000000 0.000000 0.000000 -6.488739 -3.762505 -1.439569 1.106484 -9.037037 20.348118 -0.983916 0.097104 6.708210 0.000000 0.000000 0.000000 -5.666137 13.816476 -4.740443 1.941352 4.346508 21.009663 1.263954 0.054843 -14.186877 -0.000001 -0.000007 -1.522258 0.000000 0.000000 0.000000 -5.276339 -6.453269 -26.539326 -8.508563 -5.099459 55.217510 2.930502 -6.448176 0.551785 0.000000 0.000000 -3.009684 0.000000 0.000000 0.000000 
6.251630 102.739639 75.005997 3.275088 -0.679257 -2.543198 -3.182258 -0.237134 1.309981 -0.152511 -0.773834 2.592248 -0.156503 -0.786745 2.587382 1.276432 0.497078 -3.127542 -0.969959 3.983010 -5.398793 0.000000 0.000000 0.000000 0.000000 0.000000 0.000000 0.000000 0.000000 0.000000 -11.003211 0.520494 0.749149 -63.606182 -8.344646 -3.981356 -0.000195 -20.325573 0.000000 -15.270509 -10.459423 33.505253 -7.233025 21.600985 -3.147283 4.567085 24.652740 6.701701 3.434521 10.041136 0.778426 0.000000 0.000000 0.000000 -27.120329 3.136963 -0.756774 -21.975824 2.575926 -0.500230 -15.068083 1.790132 -0.236779 0.000000 0.000000 0.000000 -27.104311 3.135249 -0.755907 -21.991840 2.577715 -0.500955 -15.068080 1.790139 -0.236779 0.000000 0.000000 0.000000 -27.120329 3.136963 -0.756774 -21.975824 2.575926 -0.500230 -15.068083 1.790132 -0.236779 0.000000 0.000000 0.000000 -26.662321 7.197720 -0.715506 -22.465687 -1.177696 1.032937 -15.068084 1.790123 -0.236775 0.000000 0.000000 0.000000 11.387147 -4.922166 -0.445898 65.508713 -12.982486 -5.264294 -0.000002 20.527225 -0.000002 -1.193922 -0.765179 34.922367 -2.347821 0.283343 -0.005841 8.775994 -1.059509 -0.081184 4.387619 -0.532104 -0.020385 0.000000 0.000000 0.000000 -2.347820 0.284936 -0.005841 8.775998 -1.061083 -0.081427 4.387619 -0.532104 -0.020385 0.000000 0.000000 0.000000 -2.347820 0.284936 -0.005841 8.775998 -1.061083 -0.081427 4.387621 -0.534125 -0.020383 0.000000 0.000000 0.000000 -2.347820 0.284936 -0.005841 8.775998 -1.061083 -0.081427 4.387619 -0.532104 -0.020385 0.000000 0.000000 0.000000 -6.488739 -3.762505 -1.439569 1.220658 -8.798832 20.305029 -0.954348 0.224980 6.690802 0.000000 0.000000 0.000000 -4.584025 14.852302 -2.017300 0.981526 2.342845 19.309059 1.117029 0.057311 -15.742004 0.000001 -0.000022 -0.960819 0.000000 0.000000 0.000000 -4.371862 -6.671979 -27.863890 -7.579142 -6.190691 46.623333 4.373322 -7.404014 -0.641698 -0.000001 -0.000009 -0.589275 0.000000 0.000000 0.000000 
6.250130 102.707718 78.333923 2.971792 -0.115827 -2.160538 -2.847619 -0.468546 1.279283 -0.077856 -1.000885 2.599290 -0.081845 -1.014261 2.593114 1.402066 0.464989 -3.332720 -0.719581 3.869531 -5.909056 0.000000 0.000000 0.000000 0.000000 0.000000 0.000000 0.000000 0.000000 0.000000 -10.944965 0.520492 0.751793 -62.751099 -13.022655 -1.892399 -0.000233 -17.879574 0.000004 -13.717164 -8.919900 36.482540 -7.244298 22.016886 -3.107796 4.559703 24.620935 6.695426 3.432586 10.025084 0.775804 0.000000 0.000000 0.000000 -27.521641 3.179689 -0.778881 -22.161263 2.596568 -0.508604 -15.160708 1.800871 -0.239682 0.000000 0.000000 0.000000 -27.505610 3.177991 -0.777999 -22.177277 2.598353 -0.509324 -15.160713 1.800868 -0.239683 0.000000 0.000000 0.000000 -27.521641 3.179689 -0.778881 -22.161263 2.596568 -0.508604 -15.160708 1.800871 -0.239682 0.000000 0.000000 0.000000 -27.065155 7.240613 -0.737399 -22.650358 -1.152095 1.036685 -15.160712 1.800866 -0.239686 0.000000 0.000000 0.000000 11.458467 -4.958678 -0.459467 65.349274 -15.227507 -6.396999 0.000032 19.126652 0.000012 -1.278237 -1.488472 35.990284 -2.739473 0.330843 -0.007953 8.360316 -1.009629 -0.073686 4.179842 -0.506957 -0.018497 0.000000 0.000000 0.000000 -2.739474 0.332436 -0.007955 8.360322 -1.011205 -0.073915 4.179842 -0.506957 -0.018497 0.000000 0.000000 0.000000 -2.739474 0.332436 -0.007955 8.360322 -1.011205 -0.073915 4.179840 -0.508980 -0.018497 0.000000 0.000000 0.000000 -2.739474 0.332436 -0.007955 8.360322 -1.011205 -0.073915 4.179842 -0.506957 -0.018497 0.000000 0.000000 0.000000 -6.488739 -3.762505 -1.439569 1.277153 -8.680888 20.283892 -0.939761 0.288273 6.682209 0.000000 0.000000 0.000000 -3.565746 15.653304 1.160859 0.374342 0.937060 16.755373 0.847223 0.054014 -16.556971 0.000001 0.000021 -0.481818 0.000000 0.000000 0.000000 -3.683960 -6.161985 -28.208073 -6.216201 -7.244783 36.046188 4.819100 -8.847726 -1.629049 0.000000 0.000002 -0.000000 0.000000 0.000000 0.000000 
6.195715 102.614273 81.727806 2.777850 0.213736 -1.756817 -2.408140 -0.605291 1.189067 -0.077418 -1.098749 2.464272 -0.080664 -1.110460 2.458009 1.485450 0.414104 -3.432125 -0.419574 3.644674 -6.053224 0.000000 0.000000 0.000000 0.000000 0.000000 0.000000 0.000000 0.000000 0.000000 -10.915077 0.520488 0.753537 -62.417767 -17.900642 -0.295005 -0.000258 -14.281111 0.000002 -12.146424 -7.273324 39.433540 -7.113454 22.224859 -3.045365 4.534817 24.513515 6.674284 3.426067 9.970831 0.767041 0.000000 0.000000 0.000000 -27.620249 3.190158 -0.784379 -22.141508 2.594386 -0.507675 -15.150878 1.799741 -0.239369 0.000000 0.000000 0.000000 -27.604210 3.188466 -0.783478 -22.157530 2.596156 -0.508411 -15.150872 1.799733 -0.239374 0.000000 0.000000 0.000000 -27.620249 3.190158 -0.784379 -22.141508 2.594386 -0.507675 -15.150878 1.799741 -0.239369 0.000000 0.000000 0.000000 -27.164145 7.251138 -0.742845 -22.630697 -1.154823 1.036326 -15.150876 1.799745 -0.239375 0.000000 0.000000 0.000000 11.466943 -4.933315 -0.450910 65.564865 -17.644987 -7.477983 0.000067 18.726278 0.000025 -1.378784 -2.612772 37.107586 -2.727068 0.329348 -0.007876 8.326923 -1.005620 -0.073096 4.163140 -0.504926 -0.018353 0.000000 0.000000 0.000000 -2.727073 0.330937 -0.007878 8.326932 -1.007192 -0.073324 4.163140 -0.504926 -0.018353 0.000000 0.000000 0.000000 -2.727073 0.330937 -0.007878 8.326932 -1.007192 -0.073324 4.163141 -0.506948 -0.018353 0.000000 0.000000 0.000000 -2.727073 0.330937 -0.007878 8.326932 -1.007192 -0.073324 4.163140 -0.504926 -0.018353 0.000000 0.000000 0.000000 -6.488739 -3.762505 -1.439569 1.277015 -8.681111 20.283924 -0.939784 0.288162 6.682224 0.000000 0.000000 0.000000 -2.759170 15.738131 4.636766 0.139604 0.291941 13.526864 1.119821 0.082251 -16.898420 0.000000 0.000013 -0.098485 0.000000 0.000000 0.000000 -3.262182 -5.552454 -27.261400 -4.449204 -8.082636 23.707664 5.670160 -10.353662 -2.536190 -0.000001 -0.000005 0.000004 0.000000 0.000000 0.000000 
